#!OML:ASF F:\VICON\USERDATA\INSTALL\rory3\rory3.ASF
:FULLY-SPECIFIED
:DEGREES
449
root 0.356514 16.4261 4.41488 -1.00413 -55.7033 16.2739
lowerback -2.6476 3.65819 5.02522
upperback 0.81116 4.76055 -2.27894
thorax 2.92895 2.48764 -4.90628
lowerneck -8.48332 1.68197 -6.46271
upperneck 51.9332 2.73272 -0.501059
head 23.983 -0.886496 1.32798
rclavicle -6.32135e-014 1.27222e-014
rhumerus -35.8827 31.5215 -93.6727
rradius 69.1788
rwrist -29.688
rhand -4.39088 -41.4758
rfingers 7.12502
rthumb 21.3786 -70.3164
lclavicle -6.32135e-014 1.27222e-014
lhumerus 24.4417 -45.4935 53.841
lradius 96.1192
lwrist 41.8907
lhand -12.7003 -22.4701
lfingers 7.12502
lthumb 13.3821 7.08013
rfemur -48.569 5.70942 5.6966
rtibia 75.4591
rfoot -8.05276 -15.8441
rtoes -27.6639
lfemur -33.4976 -12.6957 -34.9253
ltibia 43.7573
lfoot -20.7107 1.96592
ltoes 6.73713
450
root 0.353318 16.4259 4.40903 -0.947578 -55.7568 16.2142
lowerback -2.70793 3.82634 5.14078
upperback 0.929943 4.97864 -2.31595
thorax 3.12751 2.60736 -4.98488
lowerneck -8.47675 1.591 -6.63291
upperneck 51.986 2.57617 -0.348433
head 24.0397 -0.959563 1.42136
rclavicle -1.12313e-013 -1.90833e-014
rhumerus -35.8274 31.3678 -93.761
rradius 68.9275
rwrist -29.7978
rhand -4.24188 -41.4051
rfingers 7.12502
rthumb 21.5217 -70.2294
lclavicle -1.12313e-013 -1.90833e-014
lhumerus 24.1681 -45.9573 54.3298
lradius 95.9985
lwrist 41.4817
lhand -13.537 -22.5848
lfingers 7.12502
lthumb 12.5755 7.01668
rfemur -48.5911 5.73135 5.79181
rtibia 75.4437
rfoot -7.70832 -15.9758
rtoes -28.5622
lfemur -33.459 -12.8695 -34.7378
ltibia 43.6455
lfoot -20.7116 1.24844
ltoes 10.7532
451
root 0.343814 16.4305 4.41584 -1.26902 -55.6996 16.588
lowerback -2.91577 3.90385 5.03015
upperback 1.10442 5.07935 -2.43033
thorax 3.43993 2.66917 -5.01325
lowerneck -8.44391 1.58208 -6.63188
upperneck 51.9305 2.59099 -0.374664
head 23.9647 -0.947055 1.41074
rclavicle 8.15017e-015 -1.90833e-014
rhumerus -35.6323 31.4443 -93.9525
rradius 68.5488
rwrist -29.8835
rhand -4.31213 -41.6383
rfingers 7.12502
rthumb 21.4542 -70.4703
lclavicle 8.15017e-015 -1.90833e-014
lhumerus 23.7653 -46.2537 54.836
lradius 95.9881
lwrist 41.3603
lhand -13.4852 -22.0834
lfingers 7.12502
lthumb 12.6255 7.51508
rfemur -48.4388 5.60065 5.5282
rtibia 75.442
rfoot -7.9801 -15.8002
rtoes -28.2672
lfemur -33.2739 -13.044 -34.9315
ltibia 43.5319
lfoot -20.7286 1.09316
ltoes 11.4933
452
root 0.320445 16.4378 4.45081 -2.52223 -55.6602 18.0341
lowerback -3.41874 3.9596 4.41178
upperback 1.33163 5.16897 -2.70403
thorax 3.9411 2.72025 -4.90155
lowerneck -8.30535 1.62203 -6.57452
upperneck 51.7733 2.67796 -0.444004
head 23.7307 -0.89415 1.37622
rclavicle -1.64991e-014 -2.38542e-014
rhumerus -35.5638 31.6477 -94.1974
rradius 68.1547
rwrist -29.7396
rhand -4.38477 -42.101
rfingers 7.12502
rthumb 21.3844 -70.9409
lclavicle -1.64991e-014 -2.38542e-014
lhumerus 23.0523 -46.4701 55.6371
lradius 95.8859
lwrist 41.0719
lhand -13.386 -21.9951
lfingers 7.12502
lthumb 12.7211 7.59745
rfemur -48.0716 5.27254 4.49113
rtibia 75.4582
rfoot -8.72091 -15.1541
rtoes -27.6353
lfemur -32.7988 -12.9646 -36.0971
ltibia 43.3773
lfoot -20.9143 1.58655
ltoes 10.6312
453
root 0.319792 16.4265 4.43807 -2.11131 -55.5323 17.7209
lowerback -3.38152 4.0238 4.49863
upperback 1.30543 5.25142 -2.67878
thorax 3.90859 2.76193 -4.92007
lowerneck -8.28365 1.56212 -6.36796
upperneck 51.7461 2.59403 -0.585741
head 23.7084 -0.891475 1.23943
rclavicle -3.02153e-014 0
rhumerus -35.6324 31.5709 -94.3548
rradius 67.929
rwrist -29.5814
rhand -4.01015 -42.3682
rfingers 7.12502
rthumb 21.7442 -71.1669
lclavicle -3.02153e-014 0
lhumerus 22.6416 -46.8415 56.152
lradius 95.8085
lwrist 40.9628
lhand -13.3254 -22.436
lfingers 7.12502
lthumb 12.7795 7.15282
rfemur -48.2754 5.22787 4.70987
rtibia 75.5341
rfoot -8.86236 -15.1278
rtoes -27.5234
lfemur -33.082 -12.9694 -35.9217
ltibia 43.4689
lfoot -20.8606 1.69658
ltoes 10.3049
454
root 0.322863 16.4174 4.42682 -1.44006 -55.362 17.0577
lowerback -3.30604 4.07872 4.84128
upperback 1.3129 5.31087 -2.63691
thorax 3.90989 2.79994 -5.06793
lowerneck -8.46456 1.45116 -6.24629
upperneck 51.8447 2.36707 -0.523667
head 23.9066 -0.947967 1.20993
rclavicle 2.50469e-014 -1.43125e-014
rhumerus -35.3955 31.3938 -94.5369
rradius 67.4483
rwrist -29.338
rhand -3.6125 -42.6093
rfingers 7.12502
rthumb 22.126 -71.3633
lclavicle 2.50469e-014 -1.43125e-014
lhumerus 22.4712 -47.2019 56.308
lradius 95.8832
lwrist 41.0354
lhand -13.7908 -22.2507
lfingers 7.12502
lthumb 12.3308 7.36569
rfemur -48.4154 5.13894 5.18038
rtibia 75.5631
rfoot -8.45504 -15.5793
rtoes -28.451
lfemur -33.3938 -13.4068 -35.3998
ltibia 43.6632
lfoot -20.7719 1.80762
ltoes 10.5361
455
root 0.325192 16.4091 4.41576 -0.620033 -55.1611 16.235
lowerback -3.29169 4.12246 5.32507
upperback 1.30278 5.34612 -2.57181
thorax 3.93614 2.82917 -5.26904
lowerneck -8.51481 1.37556 -6.37841
upperneck 51.9422 2.16797 -0.266815
head 24.0351 -1.02378 1.34691
rclavicle -4.59193e-014 5.08889e-014
rhumerus -35.1683 31.294 -94.7712
rradius 66.8659
rwrist -28.8913
rhand -3.49677 -42.8164
rfingers 7.12502
rthumb 22.2371 -71.5571
lclavicle -4.59193e-014 5.08889e-014
lhumerus 22.0433 -47.534 56.7346
lradius 95.8867
lwrist 41.0133
lhand -14.5891 -21.741
lfingers 7.12502
lthumb 11.561 7.9201
rfemur -48.537 5.1193 5.70566
rtibia 75.5829
rfoot -8.51467 -15.9349
rtoes -28.1086
lfemur -33.8107 -13.8112 -34.7872
ltibia 44.0347
lfoot -20.7873 1.927
ltoes 10.3053
456
root 0.324963 16.4015 4.40705 -0.232679 -55.0748 15.8393
lowerback -3.3091 4.23871 5.6598
upperback 1.35375 5.48666 -2.6052
thorax 4.05539 2.91314 -5.47519
lowerneck -8.46156 1.28375 -6.42136
upperneck 51.9796 1.9961 -0.186303
head 24.0617 -1.08387 1.369
rclavicle 1.70955e-014 1.11319e-014
rhumerus -35.1546 31.1465 -94.9595
rradius 66.5588
rwrist -28.2231
rhand -3.14971 -42.8058
rfingers 7.12502
rthumb 22.5703 -71.5064
lclavicle 1.70955e-014 1.11319e-014
lhumerus 21.747 -47.9625 57.1199
lradius 95.8144
lwrist 41.0948
lhand -14.6237 -21.8383
lfingers 7.12502
lthumb 11.5277 7.82471
rfemur -48.5865 5.18697 5.94547
rtibia 75.5951
rfoot -8.77219 -15.9441
rtoes -27.3648
lfemur -34.0946 -13.9691 -34.4623
ltibia 44.3399
lfoot -20.9194 1.9058
ltoes 10.3125
